{
  "accessors": [
    {
      "bufferView": 2,
      "componentType": 5126,
      "count": 28511,
      "max": [
        0.046560000628232956,
        0.05990999937057495,
        0.05119999870657921
      ],
      "min": [
        -0.0692799985408783,
        -0.057989999651908875,
        0.00824000034481287
      ],
      "type": "VEC3"
    },
    {
      "bufferView": 2,
      "byteOffset": 342132,
      "componentType": 5126,
      "count": 28511,
      "max": [
        0.9999635815620422,
        0.9999802708625793,
        0.9999550580978394
      ],
      "min": [
        -0.9999802708625793,
        -0.9999147057533264,
        -1.0
      ],
      "type": "VEC3"
    },
    {
      "bufferView": 1,
      "componentType": 5126,
      "count": 28511,
      "max": [
        0.995585024356842,
        0.9957810044288635
      ],
      "min": [
        0.08308299630880356,
        0.42907699942588806
      ],
      "type": "VEC2"
    },
    {
      "bufferView": 0,
      "componentType": 5125,
      "count": 158076,
      "type": "SCALAR"
    }
  ],
  "asset": {
    "extras": {
      "author": "Scaniverse (https://sketchfab.com/scaniverse)",
      "license": "CC-BY-NC-SA-4.0 (http://creativecommons.org/licenses/by-nc-sa/4.0/)",
      "source": "https://sketchfab.com/3d-models/everything-bagel-9ac53169b26845289767e822656d3afb",
      "title": "Everything Bagel"
    },
    "generator": "Sketchfab-14.79.0",
    "version": "2.0"
  },
  "bufferViews": [
    {
      "buffer": 0,
      "byteLength": 632304,
      "name": "floatBufferViews",
      "target": 34963
    },
    {
      "buffer": 0,
      "byteLength": 228088,
      "byteOffset": 632304,
      "byteStride": 8,
      "name": "floatBufferViews",
      "target": 34962
    },
    {
      "buffer": 0,
      "byteLength": 684264,
      "byteOffset": 860392,
      "byteStride": 12,
      "name": "floatBufferViews",
      "target": 34962
    }
  ],
  "buffers": [
    {
      "byteLength": 1544656,
      "uri": "scene.bin"
    }
  ],
  "extensionsUsed": [
    "KHR_materials_unlit"
  ],
  "images": [
    {
      "uri": "textures/main_baseColor.jpeg"
    }
  ],
  "materials": [
    {
      "doubleSided": true,
      "extensions": {
        "KHR_materials_unlit": {}
      },
      "name": "main",
      "pbrMetallicRoughness": {
        "baseColorTexture": {
          "index": 0
        },
        "metallicFactor": 0.0
      }
    }
  ],
  "meshes": [
    {
      "name": "Object_0",
      "primitives": [
        {
          "attributes": {
            "NORMAL": 1,
            "POSITION": 0,
            "TEXCOORD_0": 2
          },
          "indices": 3,
          "material": 0,
          "mode": 4
        }
      ]
    }
  ],
  "nodes": [
    {
      "children": [
        1
      ],
      "matrix": [
        20.0,
        0.0,
        0.0,
        0.0,
        0.0,
        4.440892098500626e-15,
        -20.0,
        0.0,
        0.0,
        20.0,
        4.440892098500626e-15,
        0.0,
        0.0,
        0.0,
        0.0,
        1.0
      ],
      "name": "Sketchfab_model"
    },
    {
      "children": [
        2
      ],
      "name": "Scaniverse.obj.cleaner.materialmerger.gles"
    },
    {
      "mesh": 0,
      "name": "Object_2"
    }
  ],
  "samplers": [
    {
      "magFilter": 9729,
      "minFilter": 9987,
      "wrapS": 10497,
      "wrapT": 10497
    }
  ],
  "scene": 0,
  "scenes": [
    {
      "name": "Sketchfab_Scene",
      "nodes": [
        0
      ]
    }
  ],
  "textures": [
    {
      "sampler": 0,
      "source": 0
    }
  ]
}
